<?xml version="1.0" encoding="iso-8859-1"?>
<!-- Generator: Adobe Illustrator 19.0.0, SVG Export Plug-In . SVG Version: 6.00 Build 0)  -->
<svg xmlns="http://www.w3.org/2000/svg" xmlns:xlink="http://www.w3.org/1999/xlink" version="1.1" id="Capa_1" x="0px" y="0px" viewBox="0 0 512.001 512.001" style="enable-background:new 0 0 512.001 512.001;" xml:space="preserve" width="512px" height="512px">
<g>
	<g>
		<path d="M504.501,207.19c4.143,0,7.5-3.357,7.5-7.5V62.312C512,47.238,499.736,34.972,484.662,34.972H224.309    c-4.143,0-7.5,3.357-7.5,7.5s3.357,7.5,7.5,7.5h260.354c6.803,0,12.338,5.535,12.338,12.339v47.573H15V62.312    c0-6.804,5.535-12.339,12.338-12.339h166.353c4.143,0,7.5-3.357,7.5-7.5s-3.357-7.5-7.5-7.5H27.338    C12.264,34.972,0,47.238,0,62.312v84.044c0,4.143,3.357,7.5,7.5,7.5c4.143,0,7.5-3.357,7.5-7.5v-21.471h241.143v337.145H16.567    c-0.864,0-1.567-0.703-1.567-1.568V176.974c0-4.143-3.357-7.5-7.5-7.5c-4.143,0-7.5,3.357-7.5,7.5V460.46    c0,9.136,7.432,16.568,16.567,16.568h478.865c9.136,0,16.567-7.433,16.567-16.568V230.308c0-4.143-3.357-7.5-7.5-7.5    c-4.143,0-7.5,3.357-7.5,7.5V460.46c0,0.865-0.703,1.568-1.567,1.568H271.143V175.402h225.31c0.185,0,0.366-0.014,0.548-0.028    v24.316C497.001,203.833,500.358,207.19,504.501,207.19z M497,160.429c-0.181-0.013-0.363-0.027-0.548-0.027H271.143v-35.517H497    V160.429z" fill="#444444"/>
	</g>
</g>
<g>
	<g>
		<path d="M341.693,73.813H74.159c-4.142,0-7.5,3.357-7.5,7.5s3.357,7.5,7.5,7.5h267.534c4.143,0,7.5-3.357,7.5-7.5    S345.836,73.813,341.693,73.813z" fill="#444444"/>
	</g>
</g>
<g>
	<g>
		<path d="M377.964,71.778c-4.143,0-7.5,3.357-7.5,7.5v1.303c0,4.143,3.357,7.5,7.5,7.5c4.143,0,7.5-3.358,7.5-7.5v-1.303    C385.465,75.135,382.107,71.778,377.964,71.778z" fill="#444444"/>
	</g>
</g>
<g>
	<g>
		<path d="M407.902,71.778c-4.143,0-7.5,3.357-7.5,7.5v1.303c0,4.143,3.357,7.5,7.5,7.5c4.143,0,7.5-3.358,7.5-7.5v-1.303    C415.402,75.135,412.045,71.778,407.902,71.778z" fill="#444444"/>
	</g>
</g>
<g>
	<g>
		<path d="M437.841,71.778c-4.143,0-7.5,3.357-7.5,7.5v1.303c0,4.143,3.357,7.5,7.5,7.5c4.143,0,7.5-3.358,7.5-7.5v-1.303    C445.341,75.135,441.984,71.778,437.841,71.778z" fill="#444444"/>
	</g>
</g>
<g>
	<g>
		<path d="M329.093,208.568h-27.276c-4.143,0-7.5,3.357-7.5,7.5s3.358,7.5,7.5,7.5h27.276c4.143,0,7.5-3.357,7.5-7.5    S333.236,208.568,329.093,208.568z" fill="#444444"/>
	</g>
</g>
<g>
	<g>
		<path d="M396.324,247.384h-94.507c-4.143,0-7.5,3.357-7.5,7.5c0,4.143,3.358,7.5,7.5,7.5h94.507c4.143,0,7.5-3.357,7.5-7.5    C403.824,250.741,400.467,247.384,396.324,247.384z" fill="#444444"/>
	</g>
</g>
<g>
	<g>
		<path d="M457.888,274.829H301.817c-4.143,0-7.5,3.357-7.5,7.5c0,4.143,3.357,7.5,7.5,7.5h156.071c4.143,0,7.5-3.357,7.5-7.5    C465.387,278.186,462.03,274.829,457.888,274.829z" fill="#444444"/>
	</g>
</g>
<g>
	<g>
		<path d="M457.888,247.384h-31.414c-4.143,0-7.5,3.357-7.5,7.5c0,4.143,3.357,7.5,7.5,7.5h31.414c4.143,0,7.5-3.357,7.5-7.5    C465.388,250.741,462.03,247.384,457.888,247.384z" fill="#444444"/>
	</g>
</g>
<g>
	<g>
		<path d="M329.093,339.106h-27.276c-4.143,0-7.5,3.357-7.5,7.5s3.358,7.5,7.5,7.5h27.276c4.143,0,7.5-3.357,7.5-7.5    S333.236,339.106,329.093,339.106z" fill="#444444"/>
	</g>
</g>
<g>
	<g>
		<path d="M396.324,377.922h-94.507c-4.143,0-7.5,3.357-7.5,7.5c0,4.143,3.358,7.5,7.5,7.5h94.507c4.143,0,7.5-3.357,7.5-7.5    C403.824,381.28,400.467,377.922,396.324,377.922z" fill="#444444"/>
	</g>
</g>
<g>
	<g>
		<path d="M457.887,405.367H301.817c-4.143,0-7.5,3.357-7.5,7.5c0,4.143,3.358,7.5,7.5,7.5h156.071c4.143,0,7.5-3.357,7.5-7.5    C465.387,408.724,462.03,405.367,457.887,405.367z" fill="#444444"/>
	</g>
</g>
<g>
	<g>
		<path d="M457.888,377.922h-31.414c-4.143,0-7.5,3.357-7.5,7.5c0,4.143,3.357,7.5,7.5,7.5h31.414c4.143,0,7.5-3.357,7.5-7.5    C465.388,381.28,462.03,377.922,457.888,377.922z" fill="#444444"/>
	</g>
</g>
<g>
	<g>
		<path d="M109.264,355.244c-4.143,0-7.5,3.357-7.5,7.5v1.265c0,4.143,3.357,7.5,7.5,7.5s7.5-3.357,7.5-7.5v-1.265    C116.764,358.601,113.407,355.244,109.264,355.244z" fill="#444444"/>
	</g>
</g>
<g>
	<g>
		<path d="M138.341,355.245c-4.143,0-7.5,3.357-7.5,7.5v1.265c0,4.143,3.357,7.5,7.5,7.5s7.5-3.357,7.5-7.5v-1.265    C145.841,358.602,142.484,355.245,138.341,355.245z" fill="#444444"/>
	</g>
</g>
<g>
	<g>
		<path d="M167.416,355.245c-4.143,0-7.5,3.357-7.5,7.5v1.265c0,4.143,3.357,7.5,7.5,7.5c4.143,0,7.5-3.357,7.5-7.5v-1.265    C174.916,358.602,171.559,355.245,167.416,355.245z" fill="#444444"/>
	</g>
</g>
<g>
	<g>
		<path d="M88.858,392.84h-8.05v-61.002h8.05c4.143,0,7.5-3.357,7.5-7.5s-3.357-7.5-7.5-7.5h-15.55c-4.143,0-7.5,3.358-7.5,7.5    v76.002c0,4.143,3.357,7.5,7.5,7.5h15.55c4.143,0,7.5-3.357,7.5-7.5S93.001,392.84,88.858,392.84z" fill="#444444"/>
	</g>
</g>
<g>
	<g>
		<path d="M203.372,316.838h-15.55c-4.143,0-7.5,3.357-7.5,7.5s3.357,7.5,7.5,7.5h8.05v61.002h-8.05c-4.143,0-7.5,3.357-7.5,7.5    s3.357,7.5,7.5,7.5h15.55c4.143,0,7.5-3.357,7.5-7.5v-76.002C210.872,320.195,207.515,316.838,203.372,316.838z" fill="#444444"/>
	</g>
</g>
<g>
	<g>
		<path d="M97.414,181.807c-2.93-2.928-7.678-2.928-10.607,0l-11.111,11.111c-2.929,2.93-2.929,7.678,0,10.607    c1.465,1.464,3.385,2.196,5.304,2.196c1.919,0,3.838-0.732,5.303-2.196l11.111-11.111    C100.343,189.484,100.343,184.736,97.414,181.807z" fill="#444444"/>
	</g>
</g>
<g>
	<g>
		<path d="M125.706,181.806c-2.931-2.928-7.679-2.928-10.608,0l-11.111,11.111c-2.929,2.93-2.929,7.678,0,10.607    c1.465,1.464,3.385,2.196,5.304,2.196c1.919,0,3.839-0.732,5.304-2.196l11.111-11.111    C128.635,189.483,128.635,184.735,125.706,181.806z" fill="#444444"/>
	</g>
</g>
<g>
	<g>
		<path d="M172.694,257.085c-2.93-2.928-7.678-2.928-10.608,0l-11.111,11.111c-2.929,2.93-2.929,7.678,0,10.607    c1.465,1.464,3.385,2.196,5.304,2.196c1.919,0,3.839-0.732,5.304-2.196l11.111-11.111    C175.623,264.762,175.623,260.014,172.694,257.085z" fill="#444444"/>
	</g>
</g>
<g>
	<g>
		<path d="M200.985,257.085c-2.93-2.928-7.678-2.928-10.608,0l-11.111,11.111c-2.929,2.93-2.929,7.678,0,10.607    c1.465,1.464,3.385,2.196,5.304,2.196s3.839-0.732,5.304-2.196l11.111-11.111C203.914,264.762,203.914,260.014,200.985,257.085z" fill="#444444"/>
	</g>
</g>
<g>
	<g>
		<path d="M138.341,206.261c-13.258,0-24.043,10.785-24.043,24.043s10.785,24.043,24.043,24.043    c13.257,0,24.042-10.785,24.042-24.043S151.598,206.261,138.341,206.261z M138.341,239.348c-4.986,0-9.043-4.057-9.043-9.043    s4.057-9.043,9.043-9.043c4.985,0,9.042,4.057,9.042,9.043S143.326,239.348,138.341,239.348z" fill="#444444"/>
	</g>
</g>
<g>
</g>
<g>
</g>
<g>
</g>
<g>
</g>
<g>
</g>
<g>
</g>
<g>
</g>
<g>
</g>
<g>
</g>
<g>
</g>
<g>
</g>
<g>
</g>
<g>
</g>
<g>
</g>
<g>
</g>
</svg>
