<?xml version="1.0" encoding="iso-8859-1"?>
<!-- Generator: Adobe Illustrator 19.0.0, SVG Export Plug-In . SVG Version: 6.00 Build 0)  -->
<svg xmlns="http://www.w3.org/2000/svg" xmlns:xlink="http://www.w3.org/1999/xlink" version="1.1" id="Capa_1" x="0px" y="0px" viewBox="0 0 512 512" style="enable-background:new 0 0 512 512;" xml:space="preserve" width="512px" height="512px">
<g>
	<g>
		<path d="M484.662,34.972H428.31c-4.142,0-7.5,3.358-7.5,7.5s3.358,7.5,7.5,7.5h56.352c6.803,0,12.338,5.535,12.338,12.338v47.512    c-39.873-0.321-78.47-0.304-117.704,0.061c-4.142,0.038-7.468,3.427-7.43,7.569c0.038,4.118,3.388,7.431,7.498,7.43    c0.023,0,0.048,0,0.071,0c39.184-0.365,77.735-0.381,117.564-0.06V460.46c0,0.864-0.703,1.567-1.568,1.567H114.974    c-4.142,0-7.5,3.358-7.5,7.5s3.358,7.5,7.5,7.5h380.458c9.136,0,16.568-7.432,16.568-16.567V62.312    C512,47.236,499.736,34.972,484.662,34.972z" fill="#444444"/>
	</g>
</g>
<g>
	<g>
		<path d="M397.693,34.973H27.338C12.264,34.972,0,47.236,0,62.312v398.149c0,9.135,7.432,16.567,16.568,16.567h67.789    c4.142,0,7.5-3.358,7.5-7.5s-3.358-7.5-7.501-7.5H16.568c-0.865,0-1.568-0.703-1.568-1.567V124.862    c110.509-0.36,221.985-0.354,331.481,0.022c0.009,0,0.018,0,0.026,0c4.13,0,7.485-3.341,7.5-7.474    c0.014-4.142-3.332-7.512-7.474-7.526c-109.514-0.376-221.008-0.382-331.533-0.022v-47.55c0-6.803,5.535-12.338,12.338-12.338    h370.355c4.142,0,7.5-3.358,7.5-7.5C405.193,38.331,401.835,34.973,397.693,34.973z" fill="#444444"/>
	</g>
</g>
<g>
	<g>
		<path d="M341.693,73.813H74.16c-4.142,0-7.5,3.358-7.5,7.5s3.358,7.5,7.5,7.5h267.534c4.142,0,7.5-3.358,7.5-7.5    S345.835,73.813,341.693,73.813z" fill="#444444"/>
	</g>
</g>
<g>
	<g>
		<path d="M377.965,71.777c-4.142,0-7.5,3.358-7.5,7.5v1.303c0,4.142,3.358,7.5,7.5,7.5c4.142,0,7.5-3.358,7.5-7.5v-1.303    C385.465,75.135,382.107,71.777,377.965,71.777z" fill="#444444"/>
	</g>
</g>
<g>
	<g>
		<path d="M407.902,71.777c-4.142,0-7.5,3.358-7.5,7.5v1.303c0,4.142,3.358,7.5,7.5,7.5s7.5-3.358,7.5-7.5v-1.303    C415.402,75.135,412.044,71.777,407.902,71.777z" fill="#444444"/>
	</g>
</g>
<g>
	<g>
		<path d="M437.84,71.777c-4.142,0-7.5,3.358-7.5,7.5v1.303c0,4.142,3.358,7.5,7.5,7.5s7.5-3.358,7.5-7.5v-1.303    C445.34,75.135,441.982,71.777,437.84,71.777z" fill="#444444"/>
	</g>
</g>
<g>
	<g>
		<path d="M424.157,367.772H363.49c-4.142,0-7.5,3.358-7.5,7.5s3.358,7.5,7.5,7.5h60.668c4.142,0,7.5-3.358,7.5-7.5    S428.299,367.772,424.157,367.772z" fill="#444444"/>
	</g>
</g>
<g>
	<g>
		<path d="M424.157,391.737h-21.546c-4.142,0-7.5,3.358-7.5,7.5c0,4.142,3.358,7.5,7.5,7.5h21.546c4.142,0,7.5-3.358,7.5-7.5    C431.657,395.095,428.299,391.737,424.157,391.737z" fill="#444444"/>
	</g>
</g>
<g>
	<g>
		<path d="M119.995,281.84l41.077-41.077c2.929-2.929,2.929-7.678,0-10.606c-2.929-2.929-7.678-2.929-10.606,0l-46.38,46.38    c-1.407,1.406-2.197,3.314-2.197,5.303s0.79,3.897,2.197,5.303l46.38,46.38c1.464,1.465,3.384,2.197,5.303,2.197    s3.839-0.732,5.303-2.197c2.929-2.929,2.929-7.678,0-10.606L119.995,281.84z" fill="#444444"/>
	</g>
</g>
<g>
	<g>
		<path d="M407.914,276.537l-46.38-46.38c-2.929-2.929-7.678-2.929-10.606,0c-2.929,2.929-2.929,7.678,0,10.606l41.077,41.077    l-41.077,41.077c-2.929,2.929-2.929,7.678,0,10.606c1.464,1.464,3.384,2.197,5.303,2.197c1.919,0,3.839-0.732,5.303-2.197    l46.38-46.38c1.407-1.406,2.197-3.314,2.197-5.303S409.321,277.943,407.914,276.537z" fill="#444444"/>
	</g>
</g>
<g>
	<g>
		<path d="M244.899,235.006c-3.653-1.951-8.198-0.571-10.149,3.083l-46.252,86.599c-1.951,3.653-0.571,8.197,3.083,10.149    c1.125,0.601,2.334,0.886,3.527,0.886c2.679,0,5.271-1.44,6.622-3.968l46.252-86.599    C249.933,241.502,248.553,236.958,244.899,235.006z" fill="#444444"/>
	</g>
</g>
<g>
	<g>
		<path d="M253.052,318.52c-4.142,0-7.5,3.358-7.5,7.5v1.052c0,4.142,3.358,7.5,7.5,7.5s7.5-3.358,7.5-7.5v-1.052    C260.553,321.878,257.195,318.52,253.052,318.52z" fill="#444444"/>
	</g>
</g>
<g>
	<g>
		<path d="M287.025,318.521c-4.142,0-7.5,3.357-7.5,7.5v1.052c0,4.142,3.358,7.5,7.5,7.5c4.142,0,7.5-3.358,7.5-7.5v-1.052    C294.525,321.879,291.167,318.521,287.025,318.521z" fill="#444444"/>
	</g>
</g>
<g>
	<g>
		<path d="M320.999,318.521c-4.142,0-7.5,3.357-7.5,7.5v1.052c0,4.142,3.358,7.5,7.5,7.5s7.5-3.358,7.5-7.5v-1.052    C328.499,321.879,325.141,318.521,320.999,318.521z" fill="#444444"/>
	</g>
</g>
<g>
</g>
<g>
</g>
<g>
</g>
<g>
</g>
<g>
</g>
<g>
</g>
<g>
</g>
<g>
</g>
<g>
</g>
<g>
</g>
<g>
</g>
<g>
</g>
<g>
</g>
<g>
</g>
<g>
</g>
</svg>
