<?xml version="1.0" encoding="iso-8859-1"?>
<!-- Generator: Adobe Illustrator 19.0.0, SVG Export Plug-In . SVG Version: 6.00 Build 0)  -->
<svg version="1.1" id="Capa_1" xmlns="http://www.w3.org/2000/svg" xmlns:xlink="http://www.w3.org/1999/xlink" x="0px" y="0px"
	 viewBox="0 0 512.001 512.001" style="enable-background:new 0 0 512.001 512.001;" xml:space="preserve">
<g>
	<g>
		<path d="M177.392,187.191c4.142,0,7.5-3.358,7.5-7.5V50.725c0-9.675-7.871-17.546-17.546-17.546h-149.8
			C7.871,33.179,0,41.05,0,50.725v410.551c0,9.675,7.871,17.546,17.546,17.546h149.8c9.675,0,17.546-7.871,17.546-17.546V210.309
			c0-4.142-3.358-7.5-7.5-7.5c-4.142,0-7.5,3.358-7.5,7.5v250.967c0,1.404-1.142,2.546-2.546,2.546h-149.8
			c-1.404,0-2.546-1.142-2.546-2.546V50.725c0-1.404,1.142-2.546,2.546-2.546h149.8c1.404,0,2.546,1.142,2.546,2.546v128.966
			C169.892,183.833,173.25,187.191,177.392,187.191z"/>
	</g>
</g>
<g>
	<g>
		<path d="M494.454,33.179h-21.479c-4.142,0-7.5,3.358-7.5,7.5c0,4.142,3.358,7.5,7.5,7.5h21.479c1.404,0,2.546,1.142,2.546,2.546
			v78.24c0,1.404-1.142,2.546-2.546,2.546H237.581c-1.404,0-2.546-1.142-2.546-2.546v-78.24c0-1.404,1.142-2.546,2.546-2.546
			h204.777c4.142,0,7.5-3.358,7.5-7.5c0-4.142-3.358-7.5-7.5-7.5H237.581c-9.675,0-17.546,7.871-17.546,17.546v78.24
			c0,9.675,7.871,17.546,17.546,17.546h256.874c9.675,0,17.546-7.871,17.546-17.546v-78.24C512,41.05,504.129,33.179,494.454,33.179
			z"/>
	</g>
</g>
<g>
	<g>
		<path d="M496.923,173.607H227.535c-4.142,0-7.5,3.358-7.5,7.5c0,4.142,3.358,7.5,7.5,7.5h269.388c4.142,0,7.5-3.358,7.5-7.5
			C504.423,176.965,501.065,173.607,496.923,173.607z"/>
	</g>
</g>
<g>
	<g>
		<path d="M496.923,216.478H227.535c-4.142,0-7.5,3.358-7.5,7.5c0,4.142,3.358,7.5,7.5,7.5h269.388c4.142,0,7.5-3.358,7.5-7.5
			C504.423,219.836,501.065,216.478,496.923,216.478z"/>
	</g>
</g>
<g>
	<g>
		<path d="M496.923,259.349H227.535c-4.142,0-7.5,3.358-7.5,7.5c0,4.142,3.358,7.5,7.5,7.5h269.388c4.142,0,7.5-3.358,7.5-7.5
			C504.423,262.707,501.065,259.349,496.923,259.349z"/>
	</g>
</g>
<g>
	<g>
		<path d="M496.923,302.22H227.535c-4.142,0-7.5,3.358-7.5,7.5c0,4.142,3.358,7.5,7.5,7.5h269.388c4.142,0,7.5-3.358,7.5-7.5
			C504.423,305.578,501.065,302.22,496.923,302.22z"/>
	</g>
</g>
<g>
	<g>
		<path d="M336.321,342.737H235.329c-9.675,0-17.546,7.871-17.546,17.546v100.993c0,9.675,7.871,17.546,17.546,17.546h15.695
			c4.142,0,7.5-3.358,7.5-7.5c0-4.142-3.358-7.5-7.5-7.5h-15.695c-1.404,0-2.546-1.142-2.546-2.546v-93.428l95.974,95.974h-47.115
			c-4.142,0-7.5,3.358-7.5,7.5c0,4.142,3.358,7.5,7.5,7.5h54.679c9.675,0,17.546-7.871,17.546-17.546V360.283
			C353.867,350.608,345.996,342.737,336.321,342.737z M338.867,452.719l-94.981-94.981h92.436c1.403-0.001,2.545,1.141,2.545,2.545
			V452.719z"/>
	</g>
</g>
<g>
	<g>
		<path d="M494.454,342.737H393.461c-9.675,0-17.546,7.871-17.546,17.546v100.993c0,9.675,7.871,17.546,17.546,17.546h100.993
			c9.675,0,17.546-7.871,17.546-17.546V360.283C512,350.608,504.129,342.737,494.454,342.737z M497,461.275
			c0,1.404-1.142,2.546-2.546,2.546H393.461c-1.404,0-2.546-1.142-2.546-2.546V360.283c0-1.404,1.142-2.546,2.546-2.546h100.993
			c1.404,0,2.546,1.142,2.546,2.546V461.275z"/>
	</g>
</g>
<g>
	<g>
		<path d="M326.642,82.699c-4.142,0-7.5,3.358-7.5,7.5v1.22c0,4.142,3.358,7.5,7.5,7.5c4.142,0,7.5-3.358,7.5-7.5v-1.22
			C334.142,86.057,330.784,82.699,326.642,82.699z"/>
	</g>
</g>
<g>
	<g>
		<path d="M366.018,82.699c-4.142,0-7.5,3.358-7.5,7.5v1.22c0,4.142,3.358,7.5,7.5,7.5c4.142,0,7.5-3.358,7.5-7.5v-1.22
			C373.518,86.057,370.16,82.699,366.018,82.699z"/>
	</g>
</g>
<g>
	<g>
		<path d="M405.393,82.699c-4.142,0-7.5,3.358-7.5,7.5v1.22c0,4.142,3.358,7.5,7.5,7.5c4.142,0,7.5-3.358,7.5-7.5v-1.22
			C412.893,86.057,409.535,82.699,405.393,82.699z"/>
	</g>
</g>
<g>
	<g>
		<path d="M72.052,359.989l-14.908-14.908c-2.929-2.929-7.678-2.929-10.606,0c-2.929,2.929-2.929,7.678,0,10.606l14.908,14.908
			c1.464,1.464,3.384,2.197,5.303,2.197s3.839-0.732,5.303-2.197C74.981,367.666,74.981,362.917,72.052,359.989z"/>
	</g>
</g>
<g>
	<g>
		<path d="M127.61,393.959H51.841c-4.142,0-7.5,3.358-7.5,7.5c0,4.142,3.358,7.5,7.5,7.5h75.769c4.142,0,7.5-3.358,7.5-7.5
			C135.11,397.317,131.752,393.959,127.61,393.959z"/>
	</g>
</g>
<g>
	<g>
		<path d="M127.61,424.332H51.841c-4.142,0-7.5,3.358-7.5,7.5c0,4.142,3.358,7.5,7.5,7.5h75.769c4.142,0,7.5-3.358,7.5-7.5
			C135.11,427.69,131.752,424.332,127.61,424.332z"/>
	</g>
</g>
<g>
</g>
<g>
</g>
<g>
</g>
<g>
</g>
<g>
</g>
<g>
</g>
<g>
</g>
<g>
</g>
<g>
</g>
<g>
</g>
<g>
</g>
<g>
</g>
<g>
</g>
<g>
</g>
<g>
</g>
</svg>
