<?xml version="1.0" encoding="iso-8859-1"?>
<!-- Generator: Adobe Illustrator 19.0.0, SVG Export Plug-In . SVG Version: 6.00 Build 0)  -->
<svg xmlns="http://www.w3.org/2000/svg" xmlns:xlink="http://www.w3.org/1999/xlink" version="1.1" id="Capa_1" x="0px" y="0px" viewBox="0 0 512 512" style="enable-background:new 0 0 512 512;" xml:space="preserve" width="512px" height="512px">
<g>
	<g>
		<path d="M338.604,109.884c-106.916-0.377-215.743-0.383-323.604-0.023V62.312c0-6.803,5.535-12.338,12.338-12.338h270.354    c4.142,0,7.5-3.358,7.5-7.5c0-4.142-3.358-7.5-7.5-7.5H27.338C12.264,34.972,0,47.236,0,62.312v398.149    c0,9.135,7.432,16.567,16.568,16.567h37.788c4.142,0,7.5-3.358,7.5-7.5s-3.358-7.5-7.501-7.5H16.568    c-0.865,0-1.568-0.703-1.568-1.567V124.861c107.843-0.36,216.652-0.354,323.551,0.023c0.009,0,0.018,0,0.027,0    c4.13,0,7.485-3.34,7.5-7.474C346.093,113.268,342.746,109.898,338.604,109.884z" fill="#444444"/>
	</g>
</g>
<g>
	<g>
		<path d="M484.662,34.972H328.309c-4.142,0-7.5,3.358-7.5,7.5s3.358,7.5,7.5,7.5h156.353c6.803,0,12.338,5.535,12.338,12.338    v47.515c-42.143-0.326-83.283-0.31-125.48,0.058c-4.142,0.036-7.47,3.423-7.434,7.565c0.036,4.12,3.387,7.435,7.498,7.435    c0.022,0,0.044,0,0.067,0c42.151-0.367,83.248-0.383,125.349-0.057v335.633c0,0.864-0.703,1.567-1.568,1.567H84.974    c-4.142,0-7.5,3.358-7.5,7.5s3.358,7.5,7.5,7.5h410.458c9.136,0,16.568-7.432,16.568-16.567V62.312    C512,47.236,499.736,34.972,484.662,34.972z" fill="#444444"/>
	</g>
</g>
<g>
	<g>
		<path d="M341.693,73.813H74.16c-4.142,0-7.5,3.358-7.5,7.5s3.358,7.5,7.5,7.5h267.534c4.142,0,7.5-3.358,7.5-7.5    S345.835,73.813,341.693,73.813z" fill="#444444"/>
	</g>
</g>
<g>
	<g>
		<path d="M377.965,71.777c-4.142,0-7.5,3.358-7.5,7.5v1.303c0,4.142,3.358,7.5,7.5,7.5c4.142,0,7.5-3.358,7.5-7.5v-1.303    C385.465,75.135,382.107,71.777,377.965,71.777z" fill="#444444"/>
	</g>
</g>
<g>
	<g>
		<path d="M407.902,71.777c-4.142,0-7.5,3.358-7.5,7.5v1.303c0,4.142,3.358,7.5,7.5,7.5s7.5-3.358,7.5-7.5v-1.303    C415.402,75.135,412.044,71.777,407.902,71.777z" fill="#444444"/>
	</g>
</g>
<g>
	<g>
		<path d="M437.84,71.777c-4.142,0-7.5,3.358-7.5,7.5v1.303c0,4.142,3.358,7.5,7.5,7.5s7.5-3.358,7.5-7.5v-1.303    C445.34,75.135,441.982,71.777,437.84,71.777z" fill="#444444"/>
	</g>
</g>
<g>
	<g>
		<path d="M164.709,279.253V232.07c0.001-18.378-14.95-33.329-33.328-33.329c-18.377,0-33.329,14.951-33.329,33.329v47.182    c-9.866,0.144-17.851,8.203-17.851,18.103v66.128c0,9.989,8.127,18.116,18.116,18.116h66.128c9.989,0,18.116-8.127,18.116-18.116    v-66.128C182.56,287.456,174.575,279.397,164.709,279.253z M113.051,232.07c0-10.107,8.222-18.329,18.329-18.329    c10.107,0,18.329,8.222,18.329,18.329v47.169h-36.658V232.07z M167.561,363.484c0,1.718-1.398,3.116-3.116,3.116H98.316    c-1.718,0-3.116-1.398-3.116-3.116v-66.128c0-1.718,1.398-3.116,3.116-3.116h66.128c1.719,0,3.117,1.398,3.117,3.116V363.484z" fill="#444444"/>
	</g>
</g>
<g>
	<g>
		<path d="M413.011,215.792H252.378c-10.36,0-18.789,8.429-18.789,18.789v22.325c0,10.36,8.429,18.789,18.789,18.789h160.633    c10.36,0,18.789-8.429,18.789-18.789v-22.325C431.8,224.221,423.371,215.792,413.011,215.792z M416.8,256.906L416.8,256.906    c0,2.089-1.7,3.789-3.789,3.789H252.378c-2.089,0-3.789-1.7-3.789-3.789v-22.325c0-2.089,1.7-3.789,3.789-3.789h160.633    c2.089,0,3.789,1.7,3.789,3.789V256.906z" fill="#444444"/>
	</g>
</g>
<g>
	<g>
		<path d="M413.011,290.087H252.378c-10.36,0-18.789,8.429-18.789,18.789v22.325c0,10.36,8.429,18.789,18.789,18.789h160.633    c10.36,0,18.789-8.429,18.789-18.789v-22.325C431.8,298.516,423.371,290.087,413.011,290.087z M416.8,331.201    c0,2.089-1.7,3.789-3.789,3.789H252.378c-2.089,0-3.789-1.7-3.789-3.789v-22.325c0-2.089,1.7-3.789,3.789-3.789h160.633    c2.089,0,3.789,1.7,3.789,3.789V331.201z" fill="#444444"/>
	</g>
</g>
<g>
	<g>
		<path d="M243.897,179.396c-4.142,0-7.5,3.358-7.5,7.5v1.303c0,4.142,3.358,7.5,7.5,7.5s7.5-3.358,7.5-7.5v-1.303    C251.397,182.754,248.039,179.396,243.897,179.396z" fill="#444444"/>
	</g>
</g>
<g>
	<g>
		<path d="M273.835,179.396c-4.142,0-7.5,3.358-7.5,7.5v1.303c0,4.142,3.358,7.5,7.5,7.5c4.142,0,7.5-3.358,7.5-7.5v-1.303    C281.335,182.754,277.977,179.396,273.835,179.396z" fill="#444444"/>
	</g>
</g>
<g>
	<g>
		<path d="M303.773,179.396c-4.142,0-7.5,3.358-7.5,7.5v1.303c0,4.142,3.358,7.5,7.5,7.5s7.5-3.358,7.5-7.5v-1.303    C311.273,182.754,307.915,179.396,303.773,179.396z" fill="#444444"/>
	</g>
</g>
<g>
	<g>
		<path d="M332.694,365.487h-91.605c-4.142,0-7.5,3.358-7.5,7.5s3.358,7.5,7.5,7.5h91.605c4.142,0,7.5-3.358,7.5-7.5    S336.836,365.487,332.694,365.487z" fill="#444444"/>
	</g>
</g>
<g>
	<g>
		<path d="M265.782,389.799h-24.692c-4.142,0-7.5,3.358-7.5,7.5s3.358,7.5,7.5,7.5h24.692c4.142,0,7.5-3.358,7.5-7.5    S269.924,389.799,265.782,389.799z" fill="#444444"/>
	</g>
</g>
<g>
</g>
<g>
</g>
<g>
</g>
<g>
</g>
<g>
</g>
<g>
</g>
<g>
</g>
<g>
</g>
<g>
</g>
<g>
</g>
<g>
</g>
<g>
</g>
<g>
</g>
<g>
</g>
<g>
</g>
</svg>
